<svg width="12" height="18" viewBox="0 0 12 18" fill="none" xmlns="http://www.w3.org/2000/svg">
<path d="M11.8337 6.49996C11.8337 5.73392 11.6828 4.97537 11.3896 4.26764C11.0965 3.55991 10.6668 2.91684 10.1251 2.37517C9.58344 1.83349 8.94038 1.40381 8.23265 1.11066C7.52491 0.81751 6.76637 0.666626 6.00033 0.666626C5.23428 0.666626 4.47574 0.81751 3.76801 1.11066C3.06027 1.40381 2.41721 1.83349 1.87554 2.37517C1.33386 2.91684 0.904181 3.55991 0.611028 4.26764C0.317876 4.97537 0.166992 5.73392 0.166992 6.49996C0.166992 7.65579 0.508659 8.73079 1.08783 9.63746H1.08116C3.04783 12.7166 6.00033 17.3333 6.00033 17.3333L10.9195 9.63746H10.9137C11.514 8.7011 11.8333 7.61224 11.8337 6.49996ZM6.00033 8.99996C5.33729 8.99996 4.7014 8.73657 4.23256 8.26773C3.76372 7.79889 3.50033 7.163 3.50033 6.49996C3.50033 5.83692 3.76372 5.20103 4.23256 4.73219C4.7014 4.26335 5.33729 3.99996 6.00033 3.99996C6.66337 3.99996 7.29925 4.26335 7.76809 4.73219C8.23693 5.20103 8.50033 5.83692 8.50033 6.49996C8.50033 7.163 8.23693 7.79889 7.76809 8.26773C7.29925 8.73657 6.66337 8.99996 6.00033 8.99996Z" fill="#333333"/>
</svg>
